<svg version="1" xmlns="http://www.w3.org/2000/svg" width="400" height="400" viewBox="0 0 300.000000 300.000000"><path d="M124 35.3c-.3.3-3 .8-6 1.1-6 .7-17.8 3.8-23.8 6.2-4.5 1.9-16.5 7.7-17.2 8.4-.3.3-3.2 2.3-6.4 4.5S61.1 62.9 56.8 67l-7.9 7.6-21.1-.1c-23.2-.1-22-.4-22 6.8-.1 8.2-.9 7.6 11 7.9l10.7.3.1 11c0 8.1-.4 12.5-1.8 16.9-1 3.3-2.1 7.4-2.4 9.1-.2 1.6-.8 5.5-1.3 8.5-1.8 11.2-.3 38.6 2.3 42.9.4.6.7 9.6.7 20.1v19h6.5l-.1-8.9c0-4.9.2-8.8.6-8.6.3.3 1.2 1.9 2 3.7 3.3 8.4 12.5 20.6 22.8 30.2 2.4 2.3 5.1 4.8 6 5.7 2.7 2.7 16.3 11.5 22.1 14.4 10.4 5.1 25.7 10 34.9 11.2 10.5 1.3 29.2.8 38.6-1.1 14-2.8 31.2-10 42.9-18 6.4-4.3 28.6-25.7 28.6-27.5 0-.7 4.5-1.1 13.5-1.1 13.4 0 13.5 0 13.1-2.3-.3-1.2-.5-2.5-.5-2.9-.1-.4-4.6-.7-10.2-.7s-10.3-.1-10.5-.3c-.2-.2 1.1-3.2 2.8-6.5l3.2-6.1 5.8.2 5.8.1v-3c0-2.9-.1-3-4.5-2.8-5.1.2-4.9.8-2-7.7 1.1-3.2 1.6-3.5 5.3-3.8 3.9-.3 4.2-.5 4.2-3.3 0-2.6-.3-2.9-3.4-2.9h-3.4l1-4.3c1.6-6.8 1.7-27.4.3-37.7-2.2-15.6-9.2-33.5-18.7-47.7-6-9-20.2-23.4-29.2-29.6-11.9-8.3-26.4-14.8-39.6-17.7-3-.7-6.8-1.6-8.5-2-3.4-.8-29.8-1.4-30.5-.7zm30.5 20.1c13.6 2.9 28.1 9.3 37.9 16.6 6.5 4.7 18.3 16.1 21.1 20.4 4.7 6.8 5.6 8.4 8.4 13.7 3.4 6.5 7.7 18.2 8.6 23.6.4 2.1 1 5.8 1.4 8.3 1.6 10-.5 35.5-3 37.1-.6.3-1.2 2.2-1.4 4.3-.2 2-1.9 6.9-3.8 10.9l-3.5 7.2-.1-11.3-.1-11.2h-2.9c-2.6 0-3.5 1.1-10.3 13l-7.4 12.9-7.5-12.9c-6.7-11.7-7.7-13-10.1-13-3.2 0-2.9-2.2-2.9 23-.1 20.8-.4 19 3.1 19h2.9l.3-14.3.3-14.2 4.3 7.3c2.3 4.1 4.2 7.7 4.2 8.1 0 1.2 4.8 6.1 5.9 6.1.6 0 2.9-3.3 5.2-7.3 2.3-3.9 5.2-9 6.5-11.2l2.4-4v20.1l-3.5 4c-16.4 18.4-32.2 27.8-55.3 32.9-8.2 1.9-24.4 2.5-31.2 1.3-2.5-.5-5.7-1.1-7.1-1.3-10.9-2-26.1-8.7-36.9-16.4-9.1-6.5-19-16.8-19.1-20 0-1.4 0-9.5.1-17.9l.1-15.3-3.3.3-3.3.3v11.7c.1 6.5-.2 11.8-.6 11.8-.8 0-5.9-10.4-8.4-16.9-2.7-7.3-4.4-16.1-5.1-26.3-.5-8.4-.4-9.9 1-10.4 1.3-.5 1.6-2.3 1.6-10 0-6.7.6-11.1 1.9-15.2 5.1-15 16.2-33.4 18.8-30.9.2.2-.9 3.1-2.4 6.3-2.4 5-2.8 7.2-2.7 14.4 0 7.5.4 9.4 3.2 15.4 6.1 12.9 16.5 19.9 29.8 19.9 27 0 42.2-31 27.2-55.4-3.4-5.6-8.4-10-14.7-13.1-3.5-1.8-6.3-2.3-12.1-2.3-9.1 0-16.6 3.1-22.9 9.4-2.3 2.3-4.1 3.5-4.1 2.7 0-1.8 10.6-11.5 18.2-16.7 9.5-6.5 25.3-13 34.7-14.3 2.4-.3 4.6-.8 4.9-1.1.7-.7 27.9.1 31.7.9zM97.7 90.1c7.2 2.7 11.7 10.4 11.7 19.9-.1 7.9-2.7 13.6-8.1 17.7-3.1 2.4-4.6 2.8-9.8 2.8-5.2 0-6.7-.4-9.7-2.7-6.9-5.3-9.9-15.4-7.3-24.5 3.3-11.3 13.3-17 23.2-13.2z"/><path d="M140 76c-11.2 3.8-16.8 13.8-14.4 25.8 1.4 6.8 9.4 12.3 21.5 14.7.8.2 3.9 1 6.9 1.9 8.8 2.6 11.2 6.4 6.9 10.7-1.9 1.9-3 2.1-9.8 1.7-8.6-.4-13.5-2.4-18.6-7.5l-3.4-3.4-4 6.7-4 6.7 3.7 3c10.7 8.5 26.1 11.5 39 7.7 17.5-5.3 19.9-28.3 3.8-36.7-1.7-.9-8-2.9-14.1-4.5C142.7 100 140 98.4 140 95c0-2.5 3.8-6 6.8-6.1 9.7-.5 14.1.9 19 6.2l2.9 3.1 4.1-6.7 4.1-6.8-3.7-3c-4.9-3.8-6.7-4.7-12.3-6.2-6.5-1.8-14.9-1.5-20.9.5zM68.5 196v21h6.2l-.1-8.9c-.2-10.3-.9-9.7 10.7-9.6l7.7.1v-5.5l-9.2-.3-9.3-.3v-5.8l-.1-5.7 5.6-.1c3 0 8.1 0 11.3.1l5.7.1V175H68.5v21zM110.1 176.6c-15.1 6.5-16.1 29.8-1.6 38.2 8.8 5.1 21.2.9 26.2-8.8 4.1-8.1 2.2-19.8-4.3-25.8-5.4-5.1-13.7-6.5-20.3-3.6zm13.1 5.5c4.3 1.9 7.3 7.6 7.3 14 0 6.2-1.7 9.4-6.7 13.2-5 3.7-13.7 1.6-17.1-4.3-4.2-7-3-15.8 2.9-21 3.7-3.2 9.1-4 13.6-1.9zM142.2 195.9V217h6.4l-.1-7c-.1-3.9-.1-7-.1-7.1.1 0 2.2-.3 4.9-.5l4.7-.5 4.8 7.5c4.5 7.2 4.9 7.6 8.4 7.6h3.8l-4.9-7.7-4.9-7.7 2.4-1.9c7.2-5.6 7-16.8-.4-22.2-2.2-1.7-4.6-2.1-13.8-2.3l-11.1-.4-.1 21.1zm22.2-13c2.4 2.7 2.9 6.7 1.2 10-1.9 3.5-2.5 3.7-10.6 3.7l-6.4-.1-.1-7.8-.1-7.7h7.1c5.8 0 7.5.4 8.9 1.9zM11.5 196v21h6.2l.1-21 .1-21h-6.4v21zM261.9 177.2c-.1 2.9-.1 38.1 0 39 .1.5 1.5.8 3.1.8h3v-14.9l4.4.1c2.4 0 4.8.3 5.3.7.4.3 2.8 3.6 5.2 7.3 4 6.2 4.6 6.8 7.8 6.8h3.5l-2.3-3.8c-1.2-2-3.5-5.5-5-7.8l-2.8-4.1 2.3-1.2c5.4-2.9 7.4-11.7 4.1-18.1-2.9-5.5-6.7-7-18.2-7-10 0-10.3.1-10.4 2.2zm22.1 6c2.5 2.7 2.6 7.8.1 10.9-1.7 2.2-2.7 2.4-8.7 2.4h-6.9l-.3-7.8-.3-7.7h7c5.9 0 7.3.3 9.1 2.2z"/></svg>